<svg width="32" height="32" viewBox="0 0 32 32" fill="none" xmlns="http://www.w3.org/2000/svg">
  <defs>
    <linearGradient id="bg" x1="0" y1="0" x2="32" y2="32" gradientUnits="userSpaceOnUse">
      <stop offset="0%" stop-color="#1a3d28"/>
      <stop offset="100%" stop-color="#0c2018"/>
    </linearGradient>
    <linearGradient id="sh" x1="16" y1="3" x2="16" y2="29" gradientUnits="userSpaceOnUse">
      <stop offset="0%" stop-color="#3aab6a"/>
      <stop offset="100%" stop-color="#1c5a38"/>
    </linearGradient>
    <linearGradient id="hl" x1="16" y1="3" x2="16" y2="17" gradientUnits="userSpaceOnUse">
      <stop offset="0%" stop-color="#ffffff" stop-opacity="0.14"/>
      <stop offset="100%" stop-color="#ffffff" stop-opacity="0"/>
    </linearGradient>
  </defs>
  <!-- Badge -->
  <rect width="32" height="32" rx="7.5" fill="url(#bg)"/>
  <rect x="0.5" y="0.5" width="31" height="31" rx="7" stroke="#2a6040" stroke-width="0.75" fill="none" opacity="0.5"/>
  <!-- Shield shadow -->
  <path d="M16.5 5L7.5 8.5V15C7.5 21 11.5 26 16.5 27.5C21.5 26 25.5 21 25.5 15V8.5L16.5 5Z"
        fill="#000" opacity="0.2"/>
  <!-- Shield body -->
  <path d="M16 4L7 7.5V14.5C7 20.5 11 25.5 16 27C21 25.5 25 20.5 25 14.5V7.5L16 4Z"
        fill="url(#sh)"/>
  <!-- Highlight -->
  <path d="M16 4L7 7.5V14.5C7 20.5 11 25.5 16 27C21 25.5 25 20.5 25 14.5V7.5L16 4Z"
        fill="url(#hl)"/>
  <!-- Filter bars — thick enough to read at 16px -->
  <rect x="9" y="10.5" width="14" height="3" rx="1.5" fill="#b5eecc"/>
  <rect x="10.5" y="15.5" width="11" height="3" rx="1.5" fill="#76c893"/>
  <rect x="12" y="20.5" width="8" height="3" rx="1.5" fill="#4db872"/>
</svg>
